<svg xmlns="http://www.w3.org/2000/svg" xmlns:xlink="http://www.w3.org/1999/xlink" preserveAspectRatio="xMidYMid" width="22" height="14" viewBox="0 0 22 14">
  <defs>
    <style>
      .cls-1 {
        fill: #f56565;
        fill-rule: evenodd;
      }
    </style>
  </defs>
  <path d="M0.071,13.424 C0.118,13.539 0.187,13.641 0.272,13.727 C0.277,13.733 0.283,13.734 0.287,13.738 C0.371,13.818 0.466,13.884 0.573,13.929 C0.661,13.965 0.753,13.977 0.846,13.985 C0.873,13.987 0.897,14.000 0.924,14.000 L8.319,14.000 C8.830,14.000 9.244,13.583 9.244,13.066 C9.244,12.550 8.831,12.132 8.319,12.132 L3.147,12.132 L10.464,4.697 L13.248,8.298 C13.409,8.506 13.648,8.635 13.907,8.655 C14.176,8.675 14.424,8.582 14.612,8.402 L21.712,1.611 C22.082,1.256 22.098,0.665 21.748,0.290 C21.565,0.097 21.321,-0.000 21.076,-0.000 C20.847,-0.000 20.619,0.085 20.441,0.255 L14.080,6.340 L11.276,2.713 C11.113,2.501 10.868,2.371 10.603,2.355 C10.337,2.341 10.079,2.439 9.892,2.629 L1.849,10.802 L1.849,5.594 C1.849,5.078 1.436,4.660 0.924,4.660 C0.413,4.660 -0.000,5.078 -0.000,5.594 L-0.000,13.066 L-0.000,13.067 C0.001,13.189 0.025,13.310 0.071,13.424 Z" class="cls-1"/>
</svg>
