<svg xmlns="http://www.w3.org/2000/svg" xmlns:xlink="http://www.w3.org/1999/xlink" preserveAspectRatio="xMidYMid" width="22" height="14" viewBox="0 0 22 14">
  <defs>
    <style>
      .cls-1 {
        fill: #37af59;
        fill-rule: evenodd;
      }
    </style>
  </defs>
  <path d="M21.929,0.576 C21.882,0.461 21.813,0.359 21.728,0.273 C21.723,0.267 21.717,0.266 21.712,0.261 C21.629,0.182 21.534,0.116 21.427,0.071 C21.339,0.034 21.247,0.023 21.154,0.015 C21.126,0.013 21.103,-0.000 21.076,-0.000 L13.681,-0.000 C13.169,-0.000 12.756,0.417 12.756,0.934 C12.756,1.450 13.169,1.868 13.681,1.868 L18.853,1.868 L11.536,9.303 L8.752,5.702 C8.591,5.493 8.351,5.365 8.093,5.345 C7.824,5.325 7.576,5.418 7.387,5.598 L0.288,12.389 C-0.082,12.744 -0.098,13.335 0.252,13.710 C0.435,13.903 0.679,14.000 0.924,14.000 C1.153,14.000 1.381,13.915 1.559,13.745 L7.920,7.660 L10.723,11.287 C10.887,11.499 11.132,11.629 11.397,11.645 C11.663,11.659 11.921,11.560 12.108,11.371 L20.151,3.198 L20.151,8.406 C20.151,8.922 20.564,9.340 21.076,9.340 C21.587,9.340 22.000,8.922 22.000,8.406 L22.000,0.934 L22.000,0.933 C21.999,0.811 21.975,0.690 21.929,0.576 Z" class="cls-1"/>
</svg>
