<?xml version="1.0" encoding="utf-8"?>
<!-- Generator: Adobe Illustrator 24.1.2, SVG Export Plug-In . SVG Version: 6.00 Build 0)  -->
<svg version="1.1" id="Layer_1" xmlns="http://www.w3.org/2000/svg" xmlns:xlink="http://www.w3.org/1999/xlink" x="0px" y="0px"
	 viewBox="0 0 320 186.289" style="enable-background:new 0 0 320 186.289;" xml:space="preserve">
<style type="text/css">
	.st0{fill:#FFFFFC;}
	.st1{fill:#232730;}
	.st2{opacity:0.2;fill:#FFFFFF;}
	.st3{fill:none;}
	.st4{fill:#AD26B4;}
	.st5{opacity:0.2;fill:#FFFFFC;}
	.st6{fill:#8A2193;}
	.st7{fill:#2B5B81;}
	.st8{fill:#EDEEEF;}
	.st9{opacity:0.2;}
	.st10{fill:#3291B2;}
	.st11{fill:#3EB0EF;}
	.st12{fill:#1C4564;}
</style>
<path class="st0" d="M320,112.801c-4.543,0.78-8.438,3.456-10.833,7.192c-2.056-1.088-4.399-1.707-6.887-1.707
	c-5.951,0-11.075,3.526-13.406,8.602c-1.439-1.006-3.188-1.601-5.078-1.601c-1.516,0-2.942,0.382-4.191,1.052
	c-1.179-4.237-4.601-7.537-8.908-8.543c-4.163-7.965-12.497-13.404-22.106-13.404c-0.86,0-1.707,0.055-2.545,0.14
	c-0.094-0.002-0.186-0.011-0.28-0.011c-2.122,0-4.133,0.46-5.952,1.273c-0.717-0.387-1.466-0.719-2.243-0.996
	c-3.225-5.047-8.865-8.402-15.299-8.402c-9.178,0-16.761,6.811-17.981,15.654c-3.761,1.829-6.714,5.061-8.177,9.016
	c-2.005-0.75-4.175-1.163-6.442-1.163c-4.246,0-8.153,1.443-11.266,3.859c-2.172-1.207-4.671-1.896-7.333-1.896
	c-2.993,0-5.78,0.873-8.128,2.372c-1.806-0.843-3.818-1.316-5.942-1.316c-2.53,0-4.901,0.671-6.953,1.839
	c-2.073-3.64-5.985-6.096-10.473-6.096c-1.032,0-2.033,0.13-2.989,0.374c-2.604-8.36-10.403-14.429-19.62-14.429
	c-7.821,0-14.621,4.371-18.092,10.803c-0.844-0.244-1.734-0.382-2.657-0.382c-2.898,0-5.49,1.294-7.244,3.33
	c-2.957-3.545-7.406-5.801-12.383-5.801c-5.703,0-10.71,2.964-13.575,7.432c-2.056-1.088-4.399-1.707-6.887-1.707
	c-5.951,0-11.075,3.526-13.405,8.602c-1.44-1.006-3.188-1.601-5.078-1.601c-1.516,0-2.942,0.382-4.191,1.052
	c-1.179-4.237-4.601-7.537-8.908-8.543c-3.846-7.36-11.258-12.553-19.943-13.301c-1.217-0.328-2.493-0.513-3.813-0.513
	c-0.266,0-0.53,0.012-0.793,0.026v50.127c0.804,0.078,1.618,0.123,2.443,0.123c3.52,0,6.868-0.733,9.904-2.049
	c1.536,5.297,4.074,33.591,9.866,33.591c2.688,0,14.286,0.658,16.34-0.766c2.386,1.926,15.844-7.404,19.149-7.404
	c7.677,0,183.765,8.619,185.872,6.766c1.566,1.993,18.463,0.383,24.255,0.383c2.688,0,52.17-1.021,52.17-1.021L320,112.801z"/>
<path class="st1" d="M320,155.549c-1.898,0.646-3.581,1.756-4.907,3.201c-3.072-3.267-7.431-5.31-12.269-5.31
	c-5.413,0-10.227,2.557-13.308,6.525c-2.567-2.571-6.116-4.161-10.036-4.161c-0.347,0-0.69,0.017-1.031,0.041
	c-0.957-9.775-8.368-16.167-17.795-17.038c-3.417-1.84-7.935-2.304-13.905-0.105c-2.233-1.154-4.765-1.81-7.452-1.81
	c-8.806,0-15.971,7.005-16.24,15.745c-2.066-1.537-4.627-2.448-7.401-2.448c-3.429,0-6.533,1.391-8.78,3.639
	c-3.393-6.549-10.227-11.027-18.111-11.027c-6.111,0-11.589,2.692-15.326,6.949c-1.834-2.426-4.743-3.994-8.019-3.994
	c-0.93,0-1.829,0.129-2.683,0.365c-2.218-4.255-6.666-7.162-11.796-7.162c-4.131,0-7.821,1.883-10.26,4.838
	c-3.572-5.573-9.815-9.271-16.926-9.271c-8.473,0-15.716,5.247-18.67,12.666c-2.954-2.202-6.617-3.506-10.584-3.506
	c-7.5,0-13.907,4.659-16.498,11.238c-0.115-0.003-0.23-0.009-0.345-0.009c-3.448,0-6.551,1.477-8.711,3.833
	c-3.072-3.267-7.431-5.31-12.269-5.31c-5.414,0-10.227,2.557-13.309,6.525c-2.567-2.571-6.116-4.161-10.036-4.161
	c-0.347,0-0.69,0.017-1.031,0.041c-1.006-10.278-9.149-16.813-19.267-17.125c-0.825-3.405-2.512-6.337-4.65-8.11
	c-2.982-2.473-4.555-3.833-8.382-4.23v59.908c2.218,0,320,0,320,0V155.549z"/>
<path class="st2" d="M168.947,153.981c-1.096-1.324-2.568-2.368-4.056-2.945c-2.656-1.029-6.909-0.769-8.789,1.581
	c-0.427,0.534,0.23,1.223,0.759,0.759c2.056-1.802,5.587-1.581,7.951-0.546c2.767,1.213,3.05,3.9,4.405,6.196
	c0.418,0.709,1.524,0.402,1.533-0.415c0.013-1.307-0.415-2.559-1.112-3.672c0.842-0.428,1.659-0.757,2.663-0.558
	c1.28,0.254,1.714,1.391,2.363,2.354c0.381,0.566,1.216,0.341,1.258-0.341C176.145,152.766,171.194,151.926,168.947,153.981z"/>
<path class="st2" d="M113.286,151.645c-0.963-1.194-3.282-0.697-4.465-0.144c-0.283,0.132-0.564,0.302-0.826,0.499
	c-0.013-0.017-0.02-0.036-0.035-0.053c-2.333-2.637-8.18,0.209-9.003,3.39c-2.16-0.687-4.708-0.796-6.321-0.602
	c-3.3,0.396-6.696,2.784-6.679,6.387c0.002,0.397,0.583,0.59,0.774,0.21c1.502-2.978,3.363-4.614,6.81-4.787
	c1.466-0.074,2.911,0.237,4.292,0.701c1.404,0.472,2.458,1.591,3.825,2.044c0.78,0.258,1.258-0.632,0.968-1.259
	c-0.404-0.874-1.167-1.544-2.115-2.05c0.71-0.831,1.319-1.587,2.369-2.191c1.396-0.802,2.558-0.457,3.943-0.39
	c-0.223,0.503-0.287,1.064-0.102,1.651c0.118,0.373,0.73,0.546,0.918,0.12c0.468-1.062,0.915-1.799,2.068-2.202
	c1.102-0.385,2.205,0.058,3.288-0.224C113.515,152.61,113.584,152.014,113.286,151.645z"/>
<path class="st2" d="M38.121,159.939c-1.749-0.739-3.798-0.904-5.544-0.085c-0.636,0.298-0.184,1.33,0.474,1.123
	c1.375-0.432,2.894-0.1,4.169,0.505c0.634,0.301,1.234,0.737,1.655,1.303c0.342,0.46,0.51,0.902,1.017,1.213
	c0.321,0.197,0.881,0.103,1.042-0.273C41.7,161.937,39.527,160.533,38.121,159.939z"/>
<path class="st2" d="M21.502,148.759c-0.145-0.078-0.293-0.145-0.441-0.207c0.014-2.512-2.881-4.755-4.7-6.036
	c-2.186-1.541-5.307-2.597-7.707-0.961c-0.621,0.423-0.075,1.393,0.594,1.017c2.203-1.238,4.755,0.198,6.52,1.587
	c1.482,1.166,2.16,2.59,3.006,4.063c-1.023,0.112-2.009,0.557-2.827,1.281c-0.48,0.425,0.137,1.181,0.671,0.87
	c1.297-0.753,2.669-0.818,3.967-0.045c1.39,0.829,1.338,2.328,2.113,3.541c0.424,0.664,1.281,0.469,1.551-0.203
	C25.026,151.734,23.069,149.606,21.502,148.759z"/>
<path class="st2" d="M244.374,151.744c-0.215-1.25-1.983-1.344-3.301-1.137c-0.86-3.117-5.677-2.787-8.119-1.944
	c-3.379,1.167-6.589,5.55-5.7,9.205c0.131,0.537,0.88,0.487,1.035,0c0.955-2.995,1.947-6.036,5.216-7.206
	c1.088-0.389,2.312-0.499,3.454-0.342c0.865,0.119,1.486,0.561,2.118,1.04c-1.032,0.705-1.774,1.849-1.153,3.102
	c0.217,0.439,0.919,0.322,1.029-0.134c0.267-1.108,0.836-1.54,1.952-1.75c0.448-0.084,0.919-0.105,1.37-0.029
	c0.518,0.088,0.993,0.396,1.525,0.206C244.254,152.594,244.455,152.213,244.374,151.744z"/>
<path class="st2" d="M284.269,159.939c-1.749-0.739-3.798-0.904-5.544-0.085c-0.636,0.298-0.184,1.33,0.474,1.123
	c1.375-0.432,2.894-0.1,4.169,0.505c0.634,0.301,1.234,0.737,1.655,1.303c0.342,0.46,0.51,0.902,1.017,1.213
	c0.321,0.197,0.881,0.103,1.042-0.273C287.849,161.937,285.675,160.533,284.269,159.939z"/>
<path class="st2" d="M267.65,152.733c-0.145-0.078-0.292-0.145-0.441-0.207c0.014-2.512-2.881-4.755-4.7-6.036
	c-2.186-1.541-5.307-2.597-7.707-0.961c-0.621,0.423-0.075,1.393,0.594,1.017c2.203-1.238,4.755,0.198,6.52,1.587
	c1.482,1.166,2.16,2.59,3.006,4.063c-1.023,0.112-2.009,0.557-2.827,1.281c-0.48,0.425,0.137,1.181,0.671,0.87
	c1.297-0.753,2.669-0.818,3.967-0.045c1.39,0.829,1.338,2.328,2.113,3.541c0.424,0.664,1.281,0.469,1.551-0.203
	C271.174,155.707,269.218,153.579,267.65,152.733z"/>
<rect x="0" y="15.289" class="st3" width="320" height="171"/>
<g>
	<polygon class="st0" points="169.782,128.247 151.266,128.247 153.182,71.482 167.866,71.482 	"/>
	<path class="st4" d="M140.69,57.449c-16.653,21.507-3.996,39.993-3.996,39.993l14.162-9.507
		C150.856,87.934,141.383,79.398,140.69,57.449z"/>
	<path class="st5" d="M140.795,59.674c-0.044-0.727-0.081-1.467-0.105-2.226c-16.653,21.507-3.996,39.993-3.996,39.993l1.049-0.704
		C135.582,92.935,128.345,77.541,140.795,59.674z"/>
	<path class="st6" d="M141.635,67.034c-4.905,12.027-1.78,22.069,0.404,26.819l8.817-5.919
		C150.856,87.934,144.194,81.924,141.635,67.034z"/>
	<path class="st7" d="M152.228,88.317l-1.372,8.057c0,0,4.573,3.546,9.667,3.546s9.667-3.546,9.667-3.546l-1.372-8.057
		c-1.62,0.397-4.569,0.959-8.295,0.959S153.848,88.713,152.228,88.317z"/>
	<path class="st4" d="M180.358,57.449c-0.693,21.95-10.167,30.486-10.167,30.486l14.162,9.507
		C184.354,97.442,197.011,78.956,180.358,57.449z"/>
	<path class="st5" d="M180.358,57.449c-0.02,0.629-0.049,1.244-0.083,1.851c12.873,18.299,5.049,34.042,3.055,37.455l1.023,0.687
		C184.354,97.442,197.011,78.956,180.358,57.449z"/>
	<path class="st6" d="M170.191,87.934l7.742,5.197c2.053-4.45,4.961-13.604,1.224-24.696
		C176.438,82.305,170.191,87.934,170.191,87.934z"/>
	<path class="st0" d="M168.398,9.625c0.192,0.268,0.378,0.534,0.563,0.801C168.775,10.16,168.59,9.893,168.398,9.625z"/>
	<path class="st0" d="M155.969,5.286c0.171-0.21,0.345-0.422,0.519-0.633C156.314,4.864,156.14,5.075,155.969,5.286z"/>
	<path class="st0" d="M157.257,3.73c0.171-0.203,0.342-0.406,0.516-0.61C157.599,3.324,157.427,3.527,157.257,3.73z"/>
	<path class="st0" d="M153.192,8.882c0.237-0.323,0.476-0.646,0.721-0.971C153.668,8.236,153.429,8.559,153.192,8.882z"/>
	<path class="st0" d="M154.762,6.802c0.159-0.205,0.326-0.411,0.489-0.617C155.087,6.39,154.922,6.597,154.762,6.802z"/>
	<path class="st0" d="M152.086,10.426c0.186-0.267,0.372-0.533,0.563-0.801C152.458,9.893,152.273,10.16,152.086,10.426z"/>
	<path class="st0" d="M163.275,3.12c0.174,0.204,0.346,0.407,0.516,0.61C163.62,3.527,163.449,3.324,163.275,3.12z"/>
	<path class="st0" d="M164.559,4.652c0.174,0.212,0.349,0.423,0.519,0.633C164.908,5.075,164.733,4.864,164.559,4.652z"/>
	<path class="st0" d="M165.797,6.185c0.163,0.206,0.329,0.412,0.489,0.617C166.126,6.597,165.96,6.39,165.797,6.185z"/>
	<path class="st0" d="M158.666,2.088c0.15-0.172,0.298-0.343,0.45-0.516C158.963,1.745,158.816,1.916,158.666,2.088z"/>
	<path class="st0" d="M161.932,1.572c0.153,0.173,0.3,0.344,0.45,0.516C162.232,1.916,162.084,1.745,161.932,1.572z"/>
	<path class="st0" d="M174.53,19.986c0.173,0.372,0.344,0.744,0.508,1.118C174.874,20.731,174.703,20.358,174.53,19.986z"/>
	<path class="st0" d="M167.134,7.911c0.245,0.325,0.485,0.649,0.721,0.971C167.619,8.559,167.38,8.236,167.134,7.911z"/>
	<path class="st0" d="M171.136,13.728c0.699,1.13,1.351,2.256,1.953,3.38C172.486,15.984,171.836,14.858,171.136,13.728z"/>
	<path class="st0" d="M147.308,18.358c0.179-0.354,0.36-0.707,0.548-1.061C147.668,17.65,147.487,18.004,147.308,18.358z"/>
	<path class="st0" d="M170.311,12.428c0.194,0.298,0.386,0.595,0.573,0.892C170.698,13.024,170.505,12.726,170.311,12.428z"/>
	<path class="st0" d="M173.191,17.297c0.188,0.354,0.369,0.707,0.548,1.061C173.561,18.004,173.379,17.65,173.191,17.297z"/>
	<path class="st0" d="M146.01,21.104c0.164-0.373,0.334-0.745,0.508-1.118C146.344,20.358,146.174,20.731,146.01,21.104z"/>
	<path class="st0" d="M146.643,19.718c0.166-0.352,0.337-0.703,0.512-1.055C146.98,19.014,146.809,19.366,146.643,19.718z"/>
	<path class="st0" d="M173.893,18.663c0.175,0.351,0.346,0.703,0.512,1.055C174.239,19.366,174.068,19.014,173.893,18.663z"/>
	<path class="st0" d="M151.093,11.885c0.186-0.28,0.375-0.561,0.567-0.842C151.467,11.324,151.279,11.604,151.093,11.885z"/>
	<path class="st0" d="M150.163,13.321c0.187-0.297,0.379-0.595,0.573-0.892C150.542,12.726,150.35,13.024,150.163,13.321z"/>
	<path class="st0" d="M169.388,11.042c0.192,0.281,0.381,0.562,0.567,0.842C169.769,11.604,169.58,11.324,169.388,11.042z"/>
	<path class="st0" d="M147.958,17.109c0.603-1.125,1.254-2.25,1.953-3.381C149.212,14.858,148.561,15.984,147.958,17.109z"/>
	<path class="st0" d="M180.358,57.449c0.026-0.834,0.044-1.681,0.044-2.553c0-13.897-1.091-24.057-5.364-33.79
		c-4.25,1.609-9.211,2.536-14.514,2.536s-10.265-0.927-14.514-2.536c-4.273,9.734-5.364,19.894-5.364,33.79
		c0,0.873,0.018,1.72,0.044,2.553c0.693,21.95,10.167,30.486,10.167,30.486s0.493,0.167,1.372,0.382
		c1.62,0.397,4.569,0.959,8.295,0.959s6.676-0.563,8.295-0.959c0.879-0.215,1.372-0.382,1.372-0.382S179.665,79.398,180.358,57.449z
		 M160.524,54.895c-6.944,0-12.573-5.629-12.573-12.573c0-6.944,5.629-12.573,12.573-12.573s12.573,5.629,12.573,12.573
		C173.097,49.266,167.468,54.895,160.524,54.895z"/>
	<path class="st8" d="M160.524,30.974c-6.944,0-12.573,5.629-12.573,12.573c0,6.944,5.629,12.573,12.573,12.573
		s12.573-5.629,12.573-12.573C173.097,36.603,167.468,30.974,160.524,30.974z M160.524,52.185c-4.77,0-8.637-3.867-8.637-8.637
		c0-4.77,3.867-8.637,8.637-8.637s8.637,3.867,8.637,8.637C169.161,48.318,165.294,52.185,160.524,52.185z"/>
	<path class="st4" d="M160.524,29.748c-6.944,0-12.573,5.629-12.573,12.573c0,6.944,5.629,12.573,12.573,12.573
		s12.573-5.629,12.573-12.573C173.097,35.378,167.468,29.748,160.524,29.748z M160.524,50.959c-4.77,0-8.637-3.867-8.637-8.637
		c0-4.77,3.867-8.637,8.637-8.637s8.637,3.867,8.637,8.637C169.161,47.092,165.294,50.959,160.524,50.959z"/>
	<g class="st9">
		<path class="st0" d="M160.524,30.714c6.782,0,12.307,5.371,12.561,12.091c0.006-0.161,0.012-0.321,0.012-0.483
			c0-6.944-5.629-12.573-12.573-12.573s-12.573,5.629-12.573,12.573c0,0.162,0.006,0.322,0.012,0.483
			C148.217,36.085,153.742,30.714,160.524,30.714z"/>
		<path class="st0" d="M160.524,51.925c4.77,0,8.637-3.867,8.637-8.637c0-0.163-0.016-0.322-0.024-0.483
			c-0.252,4.544-4.006,8.154-8.613,8.154s-8.361-3.61-8.613-8.154c-0.009,0.161-0.024,0.32-0.024,0.483
			C151.886,48.058,155.753,51.925,160.524,51.925z"/>
	</g>
	<path class="st6" d="M160.524,32.636c-5.349,0-9.686,4.336-9.686,9.686c0,5.349,4.336,9.686,9.686,9.686
		c5.349,0,9.686-4.336,9.686-9.686C170.21,36.973,165.873,32.636,160.524,32.636z M160.524,48.976c-3.675,0-6.654-2.979-6.654-6.654
		c0-3.675,2.979-6.654,6.654-6.654s6.654,2.979,6.654,6.654C167.178,45.997,164.199,48.976,160.524,48.976z"/>
	<path class="st4" d="M175.038,21.105L175.038,21.105C175.038,21.105,175.038,21.104,175.038,21.105
		c-0.164-0.374-0.335-0.746-0.508-1.118c-0.042-0.089-0.083-0.179-0.125-0.269c-0.166-0.352-0.337-0.703-0.512-1.055
		c-0.051-0.102-0.102-0.203-0.154-0.305c-0.179-0.354-0.36-0.707-0.548-1.061c-0.033-0.063-0.069-0.126-0.102-0.189
		c-0.602-1.124-1.254-2.25-1.953-3.38c-0.084-0.136-0.166-0.271-0.252-0.407c-0.187-0.297-0.379-0.595-0.573-0.892
		c-0.118-0.181-0.236-0.362-0.357-0.544c-0.186-0.28-0.375-0.561-0.567-0.842c-0.14-0.205-0.283-0.41-0.427-0.616
		c-0.186-0.267-0.372-0.533-0.563-0.801c-0.177-0.247-0.36-0.495-0.542-0.743c-0.237-0.323-0.476-0.646-0.721-0.971
		c-0.278-0.368-0.559-0.738-0.848-1.109c-0.159-0.205-0.326-0.411-0.489-0.617c-0.237-0.299-0.475-0.598-0.719-0.899
		c-0.171-0.21-0.345-0.422-0.519-0.633c-0.252-0.306-0.508-0.614-0.768-0.922c-0.171-0.203-0.342-0.406-0.516-0.61
		c-0.292-0.342-0.591-0.686-0.892-1.032c-0.15-0.172-0.298-0.343-0.45-0.516c-0.459-0.52-0.927-1.043-1.408-1.572
		c-0.481,0.529-0.949,1.052-1.408,1.572c-0.153,0.173-0.3,0.344-0.45,0.516c-0.302,0.345-0.6,0.69-0.892,1.032
		c-0.174,0.204-0.346,0.407-0.516,0.61c-0.26,0.309-0.516,0.616-0.768,0.922c-0.174,0.212-0.349,0.423-0.519,0.633
		c-0.244,0.301-0.482,0.6-0.719,0.899c-0.163,0.206-0.329,0.412-0.489,0.617c-0.289,0.371-0.57,0.741-0.848,1.109
		c-0.245,0.325-0.485,0.649-0.721,0.971c-0.182,0.248-0.365,0.496-0.542,0.743c-0.192,0.268-0.377,0.534-0.563,0.801
		c-0.143,0.206-0.287,0.411-0.427,0.616c-0.192,0.281-0.381,0.562-0.567,0.842c-0.12,0.181-0.239,0.363-0.357,0.544
		c-0.194,0.298-0.386,0.595-0.573,0.892c-0.085,0.136-0.168,0.272-0.252,0.407c-0.7,1.131-1.351,2.256-1.953,3.381
		c-0.034,0.063-0.069,0.126-0.102,0.188c-0.188,0.354-0.369,0.707-0.548,1.061c-0.051,0.102-0.103,0.203-0.154,0.305
		c-0.175,0.351-0.346,0.703-0.512,1.055c-0.042,0.089-0.084,0.179-0.125,0.269c-0.173,0.372-0.344,0.744-0.508,1.118
		c0,0,0,0.001,0,0.001l0,0c4.25,1.609,9.211,2.536,14.514,2.536S170.788,22.714,175.038,21.105z"/>
	<circle class="st10" cx="160.524" cy="42.322" r="8.637"/>
	<circle class="st11" cx="160.524" cy="42.322" r="7.38"/>
	<path class="st5" d="M162.512,39.969c0.32,0.455,0.6,0.993,1.113,1.209c0.715,0.301,1.583-0.24,1.827-0.977
		c0.244-0.737-0.01-1.559-0.442-2.203c-0.986-1.47-2.939-2.216-4.654-1.777c-0.517,0.132-1.093,0.491-1.058,1.023
		c0.036,0.553,0.674,0.815,1.179,1.043C161.288,38.654,161.999,39.241,162.512,39.969z"/>
	<path class="st5" d="M166.811,42.879c0.271-0.434,0.301-0.997-0.163-1.426c-1.075-0.996-2.689,0.887-1.65,1.815
		C165.621,43.825,166.441,43.472,166.811,42.879z"/>
	<path class="st8" d="M173.19,76.765c-2.992,1.019-6.259,0.674-9.39,0.239c-3.863-0.537-7.83-1.239-11.114-3.343
		c-2.966-1.9-5.155-4.821-6.788-7.943c-3.728-7.127-4.732-15.169-4.831-23.3c-0.302,3.842-0.421,7.96-0.421,12.477
		c0,0.873,0.018,1.72,0.044,2.553c0.693,21.95,10.167,30.486,10.167,30.486s0.493,0.167,1.372,0.382
		c1.62,0.397,4.569,0.959,8.295,0.959s6.676-0.563,8.295-0.959c0.879-0.215,1.372-0.382,1.372-0.382s4.495-4.052,7.519-13.747
		C176.319,75.251,174.841,76.203,173.19,76.765z"/>
	<path class="st6" d="M175.038,21.105C175.038,21.105,175.038,21.104,175.038,21.105c-0.081-0.184-0.166-0.366-0.249-0.549
		c-3.064,0.775-6.499,0.56-9.711,0.281c-1.968-0.171-3.966-0.349-5.812-1.053c-1.846-0.703-3.554-2.013-4.278-3.851
		c-0.666-1.689-0.434-3.582-0.191-5.382c0.226-1.679,0.495-3.434,1.008-5.058c-0.186,0.231-0.371,0.462-0.554,0.692
		c-0.163,0.206-0.329,0.412-0.489,0.617c-0.289,0.371-0.57,0.741-0.848,1.109c-0.245,0.325-0.485,0.649-0.721,0.971
		c-0.182,0.248-0.365,0.496-0.542,0.743c-0.192,0.268-0.377,0.534-0.563,0.801c-0.143,0.206-0.287,0.411-0.427,0.616
		c-0.192,0.281-0.381,0.562-0.567,0.842c-0.12,0.181-0.239,0.363-0.357,0.544c-0.194,0.298-0.386,0.595-0.573,0.892
		c-0.085,0.136-0.168,0.272-0.252,0.407c-0.7,1.131-1.351,2.256-1.953,3.381c-0.034,0.063-0.069,0.126-0.102,0.188
		c-0.188,0.354-0.369,0.707-0.548,1.061c-0.051,0.102-0.103,0.203-0.154,0.305c-0.175,0.351-0.346,0.703-0.512,1.055
		c-0.042,0.089-0.084,0.179-0.125,0.269c-0.173,0.372-0.344,0.744-0.508,1.118c0,0,0,0.001,0,0.001
		c4.25,1.609,9.211,2.536,14.514,2.536S170.788,22.714,175.038,21.105z"/>
	<path class="st5" d="M171.953,15.092c-0.266-0.454-0.535-0.909-0.817-1.364c-0.084-0.136-0.166-0.271-0.252-0.407
		c-0.187-0.297-0.379-0.595-0.573-0.892c-0.118-0.181-0.236-0.362-0.357-0.544c-0.186-0.28-0.375-0.561-0.567-0.842
		c-0.14-0.205-0.283-0.41-0.427-0.616c-0.186-0.267-0.372-0.533-0.563-0.801c-0.177-0.247-0.36-0.495-0.542-0.743
		c-0.237-0.323-0.476-0.646-0.721-0.971c-0.278-0.368-0.559-0.738-0.848-1.109c-0.159-0.205-0.326-0.411-0.489-0.617
		c-0.237-0.299-0.475-0.598-0.719-0.899c-0.171-0.21-0.345-0.422-0.519-0.633c-0.252-0.306-0.508-0.614-0.768-0.922
		c-0.171-0.203-0.342-0.406-0.516-0.61c-0.292-0.342-0.591-0.686-0.892-1.032c-0.15-0.172-0.298-0.343-0.45-0.516
		c-0.459-0.52-0.927-1.043-1.408-1.572c-0.271,0.297-0.529,0.59-0.791,0.884C163.806,5.62,167.879,10.356,171.953,15.092z"/>
	<path class="st12" d="M168.864,88.582l-0.045-0.266c-1.62,0.397-4.569,0.959-8.295,0.959s-6.676-0.563-8.295-0.959l-0.695,4.08
		c0.03,0.005,0.061,0.01,0.091,0.015c3.239,0.48,6.568,0.641,9.772-0.034C164.165,91.794,166.843,90.541,168.864,88.582z"/>
</g>
</svg>
