
<svg width="1221" height="778" viewBox="0 0 1221 778" xmlns="http://www.w3.org/2000/svg" xmlns:xlink="http://www.w3.org/1999/xlink">
  <title>
    Rectangle 2
  </title>
  <defs>
    <rect id="a" width="1234" height="778" rx="1"/>
    <linearGradient x1="50%" y1="-2.723%" x2="109.917%" y2="81.394%" id="c">
      <stop stop-color="#FFF" offset="0%"/>
      <stop stop-color="#FFF" stop-opacity="0" offset="100%"/>
    </linearGradient>
    <path d="M14.512 283.8c23.473 62.585 41.742 127.354 60.293 191.524 19.781 68.394 19.837 140.353 27.285 210.235 4.462 42.112 13.21 82.695 41.102 116.171 19.53 23.416 42.951 39.188 72.017 48.288 40.494 12.68 84.545 12.939 124.241 27.741 9.188 3.426 18.482 8.044 24.581 16.003 5.06 6.62 7.472 14.937 10.825 22.285 2.987 6.542 8.024 9.147 14.41 9.838 19.48 2.1 44.501-9.61 64.722-13.18 4.272-.756 9.74-1.558 13.497-3.806 2.68-1.609 2.602-3.894 2.458-5.883-1.118-15.442-.417-31.645-4.29-46.86-4.439-17.44-15.514-29.503-30.661-37.088-25.973-12.98-59.473-13.944-88.98-19.09-29.12-5.1-58.437-10.663-86.353-20.653-23.63-8.442-45.776-20.398-64.393-37.366-23.32-21.274-35.916-50.661-43.657-80.331-19.015-72.979-17.438-151.191-35.591-225.246-9.03-36.846-20.472-73.391-31.756-109.602-9.66-31.01-19.97-62.288-33.899-91.411-3.919-8.201-8.7-19.24-17.424-23.643-4.235-2.138-8.506-1.748-12.592-.979-6.067 1.145-12.16 3.857-15.802 8.97-12.058 16.913 2.904 47.431 9.967 64.06" id="d"/>
    <filter x="-7.3%" y="-4.8%" width="114.7%" height="109.6%" filterUnits="objectBoundingBox" id="e">
      <feGaussianBlur stdDeviation="16.5" in="SourceAlpha" result="shadowBlurInner1"/>
      <feOffset dx="-36" in="shadowBlurInner1" result="shadowOffsetInner1"/>
      <feComposite in="shadowOffsetInner1" in2="SourceAlpha" operator="arithmetic" k2="-1" k3="1" result="shadowInnerInner1"/>
      <feColorMatrix values="0 0 0 0 0.062745098 0 0 0 0 0.0980392157 0 0 0 0 0.152941176 0 0 0 1 0" in="shadowInnerInner1"/>
    </filter>
    <path d="M60.197 232.432c14.394 33.26 25.686 67.749 36.324 102.316 6.988 22.714 13.702 45.535 20.453 68.328 10.304 34.767 16.507 70.386 21.554 106.215 5.48 38.883 9.9 78.303 17.747 116.607 8.906 43.468 23.216 84.937 58.83 114.109 28.324 23.177 63.041 35.93 98.149 44.835 21.823 5.53 43.953 9.632 66.097 13.526 20.653 3.635 42.253 5.526 61.755 13.73 26.23 11.038 38.655 32.695 51.424 56.314 4.731 8.751 12.537 14.787 21.043 19.265 20.389 10.736 44.292 15.534 67.327 19.326 3.01.496 6.13.982 9.356 1.348 6.426.723 12.898.946 19.358.668.465 0 .929-.032 1.393-.065 4.532-.338 9.909-.616 13.902-3.19 2.359-1.52 2.285-4.004 1.857-6.457-8.325-46.207-19.794-94.565-60.418-121.757-24.145-16.169-54.381-18.347-82.863-22.816-32.68-5.1-65.47-10.351-97.67-17.323-39.515-8.553-80.236-19.307-115.618-39.838-37.048-21.504-56.903-53.935-70.424-93.226-17.32-50.328-24.711-104.063-34.87-156.552-10.123-52.303-25.604-102.965-41.512-153.664-9.565-30.478-19.534-61.486-33.394-89.846-4.04-8.265-8.715-16.475-15.573-22.937-4.94-4.677-11.08-9.312-17.789-10.898-4.28-.996-10.586.366-13.316 4.135-5.14 7.083-.52 18.01 2.219 25.171 4.263 11.126 9.588 21.903 14.673 32.676" id="f"/>
    <filter x="-5.9%" y="-4.7%" width="111.8%" height="109.3%" filterUnits="objectBoundingBox" id="g">
      <feGaussianBlur stdDeviation="16.5" in="SourceAlpha" result="shadowBlurInner1"/>
      <feOffset dx="-36" in="shadowBlurInner1" result="shadowOffsetInner1"/>
      <feComposite in="shadowOffsetInner1" in2="SourceAlpha" operator="arithmetic" k2="-1" k3="1" result="shadowInnerInner1"/>
      <feColorMatrix values="0 0 0 0 0.062745098 0 0 0 0 0.0980392157 0 0 0 0 0.152941176 0 0 0 1 0" in="shadowInnerInner1"/>
    </filter>
    <path d="M92.724 194.496c14.738 29.71 25.658 61.038 35.748 92.513 6.959 21.771 13.583 43.732 20.291 65.596 10.86 35.404 18.203 71.678 25.445 107.961 7.914 39.624 16.268 79.446 28.51 117.763 7.205 22.54 15.963 45.039 28.488 65.37 12.795 20.756 31.963 35.709 53.144 47.284 43.143 23.569 92.622 34.954 140.459 44.469 25.63 5.095 51.418 9.338 77.215 13.484 24.058 3.868 48.95 6.022 71.106 16.926 35.14 17.25 55.357 50.773 74.047 83.54 6.337 11.118 14.65 20.665 23.974 29.155 20.458 18.626 42.108 33.412 68.452 42.931 3.293 1.262 6.665 2.307 10.095 3.127 5.984 1.287 12.288 2.158 18.468.926.361-.07.714-.157 1.053-.245 4.495-1.19 6.494-3.576 7.538-7.004.673-2.205-.144-5.183-1.308-8.26-21.34-56.4-42.308-120.227-92.218-156.858-25.765-18.908-56.725-21.53-87.899-26.018-38.707-5.559-77.508-11.15-115.881-18.205-49.108-9.023-99.817-19.418-145.487-40.573-21.803-10.107-42.428-24.008-56.818-43.583-12.316-16.764-21.66-36.057-29.578-55.081-20.383-48.99-32.723-101.13-45.851-152.69-12.563-49.37-28.247-97.553-44.367-145.792-9.037-27.038-18.208-54.608-30.989-79.673-3.947-7.75-8.665-15.226-14.543-21.845-7.19-8.097-15.35-17.329-24.939-21.637-3.873-1.737-9.987-4.354-13.917-2.015-9.046 5.369 15.898 41.19 19.772 48.48" id="h"/>
    <filter x="-4.9%" y="-4.4%" width="109.8%" height="108.8%" filterUnits="objectBoundingBox" id="i">
      <feGaussianBlur stdDeviation="16.5" in="SourceAlpha" result="shadowBlurInner1"/>
      <feOffset dx="-36" in="shadowBlurInner1" result="shadowOffsetInner1"/>
      <feComposite in="shadowOffsetInner1" in2="SourceAlpha" operator="arithmetic" k2="-1" k3="1" result="shadowInnerInner1"/>
      <feColorMatrix values="0 0 0 0 0.062745098 0 0 0 0 0.0980392157 0 0 0 0 0.152941176 0 0 0 1 0" in="shadowInnerInner1"/>
    </filter>
    <path d="M128.385 178.314c15.44 26.7 26.563 55.363 36.688 84.347 7.42 21.217 14.438 42.74 21.442 64.08 11.734 35.751 20.194 72.716 29.725 109.124 10.756 41.094 23.441 81.988 39.888 121.047 9.202 21.838 19.624 43.82 33.608 63.224 16.09 22.32 39.164 37.372 64.159 48.082 52.874 22.649 111.212 32.97 167.635 42.373 29.628 4.936 59.367 9.204 89.093 13.44 22.95 3.272 47.61 4.482 69.21 13.473 42.554 17.717 68.968 59.32 91.426 97.24 7.078 11.961 14.805 23.534 22.982 34.805 15.463 21.318 31.836 48.564 56.218 60.484 2.32 1.145 4.8 2.285 7.166 2.78 5.005 1.09 8.813-.708 10.719-3.623.168-.236.323-.48.464-.733 1.883-3.684 1.154-9.533.394-13.32-.755-3.362-1.893-6.627-3.39-9.731-29.11-62.102-65.639-129.789-122.447-168.82-25.421-17.463-53.802-20.568-84.385-24.54-38.72-5.028-77.628-9.143-116.208-14.584-49.52-6.984-100.888-14.877-147.301-34.643-45.217-19.26-72.318-54.445-90.114-98.686-19.118-47.531-29.053-98.417-42.063-148.09-12.509-47.642-30.49-93.018-48.38-138.76-9.935-25.397-20.213-51.253-33.812-74.453-4.508-7.599-9.827-14.687-15.862-21.142-11.252-12.166-23.58-24.04-37.731-32.729-5.983-3.675-12.625-7.781-19.415-9.598-7.885-2.108 1.65 11.165 2.815 12.903 5.82 8.69 11.999 17.12 17.458 26.05" id="j"/>
    <filter x="-4.5%" y="-4.3%" width="109%" height="108.7%" filterUnits="objectBoundingBox" id="k">
      <feGaussianBlur stdDeviation="16.5" in="SourceAlpha" result="shadowBlurInner1"/>
      <feOffset dx="-36" in="shadowBlurInner1" result="shadowOffsetInner1"/>
      <feComposite in="shadowOffsetInner1" in2="SourceAlpha" operator="arithmetic" k2="-1" k3="1" result="shadowInnerInner1"/>
      <feColorMatrix values="0 0 0 0 0.062745098 0 0 0 0 0.0980392157 0 0 0 0 0.152941176 0 0 0 1 0" in="shadowInnerInner1"/>
    </filter>
    <path d="M181.69 182.592c18.834 25.122 33.871 52.438 46.465 80.973 9.032 20.477 16.585 41.998 24.63 62.698 13.525 34.77 20.193 72.596 28.057 109.373 8.86 41.447 18.45 83.491 33.602 122.856 8.425 21.868 18.083 43.189 34.001 60.982 17.332 19.37 39.218 32.564 63.412 41.623 49.799 18.609 104.127 24.636 156.648 30.384 27.528 3.028 55.107 5.605 82.63 8.679 23.184 2.591 48.492 3.56 70.576 11.59 43.701 15.865 78.25 54.65 107.637 88.956 9.918 11.59 20.114 22.981 30.283 34.307 24.166 26.89 46.65 63.171 82.923 74.835 3.71 1.196 7.688 2.244 11.648 2.286 6.806.065 15.134-2.814 18.852-9.059.255-.414.484-.842.687-1.284 2.963-6.704.074-13.96-2.277-20.399-1.433-3.922-3.983-7.955-6.445-11.312-26.958-36.787-60.37-70.426-94.997-100.653-36.5-31.9-75.853-61.984-118.339-84.622-14.485-7.71-29.805-14.997-45.903-19.114-14.991-3.83-31.16-4.45-46.549-5.466-35.206-2.318-70.594-2.43-105.777-3.709-44.332-1.58-90.88-3.481-133.13-18.544-21.185-7.552-40.724-19.773-55.683-36.704-13.83-15.66-20.202-36.434-23.962-56.527-8.791-46.893-5.068-95.54-7.702-143.198-1.312-23.77-3.936-47.659-10.26-70.663-5.815-21.154-15.664-40.922-25.568-60.3-12.519-24.516-26.526-48.902-43.622-70.065-5.751-7.05-12.25-13.456-19.382-19.105-16.159-12.907-33.667-25.346-53.192-32.606-7.057-2.624-14.889-4.766-22.113-5.586-10.483-1.196-1.02 10.904 1.308 13.815 6.955 8.702 14.629 16.806 21.542 25.545" id="l"/>
    <filter x="-4.2%" y="-4.5%" width="108.4%" height="109%" filterUnits="objectBoundingBox" id="m">
      <feGaussianBlur stdDeviation="16.5" in="SourceAlpha" result="shadowBlurInner1"/>
      <feOffset dx="-36" in="shadowBlurInner1" result="shadowOffsetInner1"/>
      <feComposite in="shadowOffsetInner1" in2="SourceAlpha" operator="arithmetic" k2="-1" k3="1" result="shadowInnerInner1"/>
      <feColorMatrix values="0 0 0 0 0.062745098 0 0 0 0 0.0980392157 0 0 0 0 0.152941176 0 0 0 1 0" in="shadowInnerInner1"/>
    </filter>
    <path d="M242.525 168.754c24.972 23.072 47.23 48.559 64.825 77.308 11.553 18.878 22.735 39.646 28.628 60.749 9.966 35.688 7.424 75.083 6.496 112.56-1.026 41.324-2.51 83.33 4.315 123.527 3.684 21.695 11.794 41.713 28.489 57.138 15.673 14.493 34.646 24.221 55.09 30.038 43.03 12.236 89.355 11.184 133.67 10.688 23.808-.27 47.62-.798 71.427-.38 21.427.375 44.274.268 65.19 5.422 58.25 14.368 112.407 51.993 161.006 85.434 17.14 11.795 34.47 23.521 51.456 35.497 27.376 19.295 53.359 40.717 80.581 60.369 23.53 16.99 49.067 32.253 77.714 38.13 6.185 1.27 12.871 2.364 18.94 1.701 8.514-.927 21.14-4.037 22.55-14.776.086-.614.115-1.234.088-1.854-.464-10.6-10.634-20.184-17.432-27.192-4.316-4.383-8.869-8.528-13.637-12.417-48.9-40.535-104.532-74.763-160.011-106.6-56.71-32.49-115.353-63.168-175.955-86.796-33.75-13.158-66.095-22.126-102.653-21.783-30.735.301-61.377 4.083-91.87 6.952-37.802 3.56-78.113 7.457-115.163-3.518-19.682-5.83-38.02-17.07-51.8-32.337-13.92-15.387-17.896-36.573-17.729-56.215.395-46.682 16.862-93.623 25.348-140.296 4.023-22.122 7.016-44.786 5.35-67.306-1.62-21.876-9.503-40.624-19.307-59.789-13.33-26.085-29.106-51.516-48.125-73.43-6.42-7.375-13.63-14.025-21.501-19.831-20.88-15.444-44.9-29.13-71.622-31.327-8.44-.695-18.327-.32-26.034 3.416-21.817 10.572 23.858 40.003 31.676 46.918" id="n"/>
    <filter x="-3.8%" y="-4.6%" width="107.6%" height="109.2%" filterUnits="objectBoundingBox" id="o">
      <feGaussianBlur stdDeviation="16.5" in="SourceAlpha" result="shadowBlurInner1"/>
      <feOffset dx="-36" in="shadowBlurInner1" result="shadowOffsetInner1"/>
      <feComposite in="shadowOffsetInner1" in2="SourceAlpha" operator="arithmetic" k2="-1" k3="1" result="shadowInnerInner1"/>
      <feColorMatrix values="0 0 0 0 0.062745098 0 0 0 0 0.0980392157 0 0 0 0 0.152941176 0 0 0 1 0" in="shadowInnerInner1"/>
    </filter>
    <path d="M310.89 129.614c28.96 24.951 55.97 52.16 76.388 84.091 12.316 19.266 24.789 41.349 28.227 63.714 5.903 38.369-6.538 79.944-16.092 118.127-10.306 41.177-25.717 86.2-21.346 127.725 2.153 20.545 10.209 37.15 27.15 50.548 14.936 11.753 32.611 19.533 51.374 22.611 36.194 6.062 73.86-1.07 109.618-6.951 37.508-6.146 76.361-13.616 114.5-9.362 27.04 3.012 53.605 13.676 78.765 23.464 37.92 14.756 74.978 31.802 111.488 49.589 23.313 11.35 46.677 22.889 69.693 34.837 45.758 23.751 90.412 49.838 135.697 74.642 33.443 18.32 68.932 38.257 106.44 46.154 5.206 1.094 10.97 1.89 16.176.839 11.007-2.23 6.594-16.439 3.401-22.334-.478-.846-1.005-1.665-1.577-2.451-9.62-13.667-24.4-24.1-38.014-33.261-6.348-4.283-13.02-8.435-19.615-12.462-62.644-38.272-128.601-72.145-195.07-103.876-61.423-29.327-124.058-57.778-188.396-79.634-31.875-10.826-61.796-19.177-95.716-16.628-27.736 2.085-55.04 8.3-82.213 13.68-34.004 6.734-70.445 13.987-104.978 6.225-18.608-4.171-36.547-13.973-49.953-27.566-14.895-15.099-18.83-35.62-17.953-55.446 2.07-46.627 22.927-93.393 37.22-139.107 7.08-22.63 13.777-45.858 15.777-69.581 1.763-20.726-1.893-38.494-10.896-56.846-12.455-25.406-28.622-48.822-47.971-69.48-6.8-7.17-14.053-13.896-21.717-20.136-24.478-20.081-53.405-37.757-84.593-45.46-7.865-1.937-18.422-3.665-25.986.024-23.47 11.447 32.394 47.809 40.176 54.31" id="p"/>
    <filter x="-3.7%" y="-4.7%" width="107.3%" height="109.4%" filterUnits="objectBoundingBox" id="q">
      <feGaussianBlur stdDeviation="16.5" in="SourceAlpha" result="shadowBlurInner1"/>
      <feOffset dx="-36" in="shadowBlurInner1" result="shadowOffsetInner1"/>
      <feComposite in="shadowOffsetInner1" in2="SourceAlpha" operator="arithmetic" k2="-1" k3="1" result="shadowInnerInner1"/>
      <feColorMatrix values="0 0 0 0 0.062745098 0 0 0 0 0.0980392157 0 0 0 0 0.152941176 0 0 0 1 0" in="shadowInnerInner1"/>
    </filter>
    <path d="M684.877 28.66c27.713 18.686 35.877 45.125 41.175 76.573 6.49 38.414 16.147 76.058 33.086 110.942 11.126 22.952 25.845 51.729 47.643 66.782 25.186 17.392 62.556 8.84 89.147 1.178 39.548-11.394 80.562-29.337 116.234-51.056 14.005-8.524 21.951-13.106 35.645-3.153 1.943 1.391 4.41 3.38 7.08 1.985 2.053-1.072 3.708-3.91 5.317-6.563 3.499-5.865 7.451-11.447 11.821-16.695 3.973-4.721 8.975-10.69 8.975-17.266 0-4.318-2.11-7.355-3.894-9.623-3.106-3.956-9.925-15.727-16.43-13.07-5.498 2.25-10.55 7.008-15.761 10.459-13.695 9.094-28.325 17.057-42.854 24.361-48.81 24.547-119.373 54.15-168.786 14.688-34.588-27.631-57.62-64.144-65.713-107.13-5.42-28.795-8.84-57.507-24.176-83.014-5.744-9.549-13.444-17.322-22.929-22.604-9.68-5.38-24.185-7.661-34.574-2.129-9.026 4.823-8.98 19.395-1.006 25.336z" id="r"/>
    <filter x="-8.6%" y="-11.8%" width="117.2%" height="123.5%" filterUnits="objectBoundingBox" id="s">
      <feGaussianBlur stdDeviation="16.5" in="SourceAlpha" result="shadowBlurInner1"/>
      <feOffset dx="-36" in="shadowBlurInner1" result="shadowOffsetInner1"/>
      <feComposite in="shadowOffsetInner1" in2="SourceAlpha" operator="arithmetic" k2="-1" k3="1" result="shadowInnerInner1"/>
      <feColorMatrix values="0 0 0 0 0.062745098 0 0 0 0 0.0980392157 0 0 0 0 0.152941176 0 0 0 1 0" in="shadowInnerInner1"/>
    </filter>
    <path d="M632.793 38.143c-6.944.13-11.527 7.242-9.166 13.354.46 1.114 1.152 2.117 2.032 2.94 15.328 13.93 28.058 31.813 34.673 51.322 2.912 8.599 5.264 17.485 7.468 26.353 4.166 16.748 8.467 33.595 12.337 50.408 4.3 18.675 8.332 37.582 12.962 56.16 2.037 8.136 4.208 16.337 6.48 24.399 7.116 25.005 15.865 49.83 27.638 72.862 8.68 16.99 19.008 31.637 39.03 35.656 20.202 4.052 42.487-.644 61.824-5.51 53.515-13.48 105.918-38.356 157.183-60.087 9.115-3.862 19.647-9.488 29.077-8.557 7.87.777 15.277 4.838 22.813 8.626 1.583.792 3.324 1.607 5.009 1.792 1.231.188 2.48-.2 3.389-1.05 1.574-1.487 2.388-4.673 3.027-7.836 1.033-5.093 2.01-10.229 2.963-15.346.338-1.792.667-3.56 1.014-5.292 1.305-6.539 2.342-13.846.305-20.375-1.234-3.83-3.348-7.32-6.17-10.187-5.583-5.983-13.967-16.332-23.61-14.281-7.245 1.542-14.143 5.478-20.864 8.692-15.106 7.214-30.452 14.044-45.65 20.985-18.1 8.27-36.511 16.314-55.089 23.112-28.33 10.354-62.546 22.125-93.363 16.67-26.943-4.793-44.525-29.02-58.038-50.349-17.818-28.121-28.179-59.975-35.48-92.686-3.383-15.146-5.827-30.738-9.29-45.76-3.004-13.04-7-26.019-13.055-37.688-4.635-9-11.077-16.945-18.924-23.338-10.722-8.775-26.522-15.253-40.525-14.99z" id="t"/>
    <filter x="-8%" y="-10.3%" width="116%" height="120.6%" filterUnits="objectBoundingBox" id="u">
      <feGaussianBlur stdDeviation="16.5" in="SourceAlpha" result="shadowBlurInner1"/>
      <feOffset dx="-36" in="shadowBlurInner1" result="shadowOffsetInner1"/>
      <feComposite in="shadowOffsetInner1" in2="SourceAlpha" operator="arithmetic" k2="-1" k3="1" result="shadowInnerInner1"/>
      <feColorMatrix values="0 0 0 0 0.062745098 0 0 0 0 0.0980392157 0 0 0 0 0.152941176 0 0 0 1 0" in="shadowInnerInner1"/>
    </filter>
    <path d="M573.294 59.266c-4.774-.464-13.34-.041-13.294 7.05.046.846.325 1.664.808 2.362 10.986 18.372 26.188 33.617 34.787 53.367 3.96 9.1 7.43 18.563 10.647 27.974 6.036 17.806 11.798 36.11 16.92 54.078 5.739 20.131 9.839 41.14 14.147 61.837 1.97 9.434 3.929 18.892 5.962 28.308 6.218 28.73 13.21 57.544 23.077 85.077 6.858 19.138 14.05 42.643 31.476 55.191 18.03 12.994 42.304 10.108 62.683 6.91 69.532-10.928 134.607-43.724 203.34-59.938 13.628-3.212 29.043-7.848 42.648-4.41 11.18 2.832 21.855 9.175 32.59 13.672 2.062.863 4.314 1.61 6.39 1.722 1.462.079 2.813-.274 3.788-1.471 1.328-1.624 1.728-4.9 1.737-8.26 0-5.602-.311-11.245-.836-16.85-.18-1.96-.418-3.908-.636-5.797-.812-7.1-2.131-14.609-5.349-20.99-2.083-3.96-4.833-7.531-8.13-10.557-9.054-8.26-18.856-17.338-32.038-16.707-9.287.465-18.294 3.81-27.042 6.613-17.259 5.527-34.248 11.519-51.075 18.187-19.934 7.89-39.932 16.205-60.018 23.57-31.89 11.685-68.255 24.897-102.926 23.635-34.95-1.272-49.107-29.7-62.372-57.521-18.295-38.378-29.08-80.089-38.316-121.84-3.882-17.542-8.033-35.098-12.476-52.44-3.52-13.741-7.462-27.603-13.22-40.272-4.215-9.299-9.922-17.846-16.896-25.305-11.817-12.646-29.684-25.63-46.376-27.195z" id="v"/>
    <filter x="-7%" y="-9%" width="114.1%" height="117.9%" filterUnits="objectBoundingBox" id="w">
      <feGaussianBlur stdDeviation="16.5" in="SourceAlpha" result="shadowBlurInner1"/>
      <feOffset dx="-36" in="shadowBlurInner1" result="shadowOffsetInner1"/>
      <feComposite in="shadowOffsetInner1" in2="SourceAlpha" operator="arithmetic" k2="-1" k3="1" result="shadowInnerInner1"/>
      <feColorMatrix values="0 0 0 0 0.062745098 0 0 0 0 0.0980392157 0 0 0 0 0.152941176 0 0 0 1 0" in="shadowInnerInner1"/>
    </filter>
    <path d="M513.066 72.366c-6.089-2.478-14.636-5.798-21.05-3.404-.482.15-.848.545-.96 1.037-.927 7.364 9.74 16.695 14.052 21.91 8.222 9.905 16.755 19.774 23.651 30.564 6.029 9.424 11.724 19.265 16.876 29.175 9.961 19.275 18.41 39.293 25.27 59.874 7.006 20.96 12.349 41.215 14.885 63.268 1.113 9.688 1.93 19.543 2.667 29.314 2.221 29.347 3.585 59.198 9.136 87.877 4.173 21.539 10.11 45.351 21.958 64.37 12.605 20.238 33.39 30.89 55.812 33.344 81.27 8.938 164.077-38.58 245.455-47.018 27.282-2.83 53.966 3.547 78.892 14.383 24.235 10.531 47.4 26.591 72.404 35.687 2.936 1.065 5.496 1.662 7.207 1.264 1.196-.283 1.878-1.209 1.627-3.376-.292-2.543-1.938-6.766-3.867-11.17-3.14-7.169-6.493-14.328-9.901-21.367-1.169-2.404-2.319-4.72-3.441-6.947-3.83-7.701-7.707-15.791-12.827-22.492-3.176-4.247-6.785-8.153-10.768-11.657-12.68-10.915-26.434-21.719-43.727-23.34-28.993-2.718-62.758 7.086-89.91 14.912-21.412 6.173-42.827 13.374-64.21 19.913-35.565 10.841-73.272 22.16-110.863 22.72-17.061.255-33.353-3.497-45.748-15.866-11.937-11.91-18.309-28.879-24.653-44.031-18.953-45.268-30.788-93.282-42.79-140.99-5.1-20.34-11.496-40.363-17.432-60.485-4.47-15.185-9.108-30.523-15.276-44.879-4.31-10.106-9.835-19.65-16.453-28.425-14.38-18.996-34.187-35.283-56.016-44.165z" id="x"/>
    <filter x="-5.8%" y="-8.1%" width="111.7%" height="116.2%" filterUnits="objectBoundingBox" id="y">
      <feGaussianBlur stdDeviation="16.5" in="SourceAlpha" result="shadowBlurInner1"/>
      <feOffset dx="-36" in="shadowBlurInner1" result="shadowOffsetInner1"/>
      <feComposite in="shadowOffsetInner1" in2="SourceAlpha" operator="arithmetic" k2="-1" k3="1" result="shadowInnerInner1"/>
      <feColorMatrix values="0 0 0 0 0.062745098 0 0 0 0 0.0980392157 0 0 0 0 0.152941176 0 0 0 1 0" in="shadowInnerInner1"/>
    </filter>
    <path d="M439.5 66.3c-8.272-4.376-17.69-8.915-27.29-10.051-.896-.118-1.8-.145-2.702-.079-9.047.371 9.163 16.691 10.816 18.24 10.444 9.838 21.543 19.139 31.328 29.538 8.573 9.115 16.929 18.694 24.634 28.514 14.66 18.694 27.606 39.066 37.6 60.579 9.993 21.513 13.322 41.945 11.915 65.512-.603 10.154-1.926 20.535-3.477 30.67-4.744 30.92-12.393 62.03-15.926 93.024-2.553 22.348-2.567 44.871 1.648 67.256 4.716 25.078 16.934 44.509 38.495 56.503 42.483 23.59 97.814 12.676 144.738 2.221 43.17-9.611 90.053-27.461 134.787-24.34 54.565 3.806 109.515 30.678 157.652 54.31 28.44 13.96 56.514 29.056 84.589 43.934 22.086 11.712 44.422 24.819 67.506 33.507 4.094 1.544 8.695 3.427 13.16 3.496 2.089.033 3.426-.885 2.92-3.37-.836-4.104-3.472-8.156-5.57-11.786-4.86-8.374-10.598-16.497-16.488-24.29-2.108-2.782-4.197-5.457-6.267-8.026-7.116-8.841-14.659-17.54-23-25.13-6.387-5.786-13.1-11.204-20.104-16.226-32.526-23.386-67.772-43.555-105.018-57.524-20.206-7.585-41.6-13.812-63.436-15.481-19.626-1.498-39.776 1.743-58.785 5.661-21.492 4.432-42.974 10.464-64.34 16.005-35.924 9.324-72.827 18.467-110.25 18.253-17.802-.102-35.891-3.593-50.708-13.909-15.95-11.127-24.732-27.011-31.207-44.407-18.442-49.582-22.16-103.062-27.355-156.219-2.52-25.764-7.07-49.808-15.657-74.15-6.034-17.066-12.955-34.123-21.38-50.007-5.855-10.976-12.616-21.445-20.216-31.296-19.417-25.231-44.85-46.248-72.613-60.931z" id="z"/>
    <filter x="-4.6%" y="-6.1%" width="109.3%" height="112.3%" filterUnits="objectBoundingBox" id="A">
      <feGaussianBlur stdDeviation="16.5" in="SourceAlpha" result="shadowBlurInner1"/>
      <feOffset dx="-36" in="shadowBlurInner1" result="shadowOffsetInner1"/>
      <feComposite in="shadowOffsetInner1" in2="SourceAlpha" operator="arithmetic" k2="-1" k3="1" result="shadowInnerInner1"/>
      <feColorMatrix values="0 0 0 0 0.062745098 0 0 0 0 0.0980392157 0 0 0 0 0.152941176 0 0 0 1 0" in="shadowInnerInner1"/>
    </filter>
    <path d="M473.926 254.57c-3.6 43.084-22.39 85.593-36.247 127.013-13.584 40.604-30.485 93.875-6.722 130.95 20.445 31.895 67.33 39.95 104.64 37.579 38.465-2.45 75.904-13.06 113.483-20.889 17.5-3.645 35.17-6.893 53.032-8.07 20.21-1.324 38.688 1.853 58.08 7.496 71.534 20.847 140.108 54.266 206.381 87.496 51.065 25.613 101.504 52.858 152.17 79.486 19.379 10.191 38.776 20.383 58.554 29.801 11.84 5.629 24.444 12.216 37.434 14.459 3.29.57 5.957.217 6.194-1.853 1.178-10.313-11.807-24.345-18.595-32.183-11.459-13.235-25.701-24.293-40-34.555-86.445-62.049-185.736-112.22-286.015-149.28-31.455-11.623-66.955-25.725-101.073-25.137-28.425.491-56.53 7.31-84.097 13.643-59.848 13.75-167.193 39.076-191.712-36.227-13.045-40.072-7.07-86.476-.784-129.249 5.906-40.234 17.83-84.864 9.998-124.918-6.235-31.895-27.432-63.309-48.435-87.857-24.3-28.393-55.755-50.912-89.594-66.737-9.455-4.42-20.279-9.038-30.917-9.386-18.093-.593-3.317 14.18 2.784 19.378 11.937 10.164 25.516 18.387 37.578 28.26 29.831 24.404 57.486 52.153 76.781 85.355 12.295 21.17 19.133 40.882 17.082 65.426z" id="B"/>
    <filter x="-3.9%" y="-5%" width="107.8%" height="110.1%" filterUnits="objectBoundingBox" id="C">
      <feGaussianBlur stdDeviation="16.5" in="SourceAlpha" result="shadowBlurInner1"/>
      <feOffset dx="-36" in="shadowBlurInner1" result="shadowOffsetInner1"/>
      <feComposite in="shadowOffsetInner1" in2="SourceAlpha" operator="arithmetic" k2="-1" k3="1" result="shadowInnerInner1"/>
      <feColorMatrix values="0 0 0 0 0.062745098 0 0 0 0 0.0980392157 0 0 0 0 0.152941176 0 0 0 1 0" in="shadowInnerInner1"/>
    </filter>
  </defs>
  <g transform="translate(-7)" fill="none" fill-rule="evenodd">
    <mask id="b" fill="#fff">
      <use xlink:href="#a"/>
    </mask>
    <use fill="#131E26" xlink:href="#a"/>
    <g opacity=".026" mask="url(#b)" fill-rule="nonzero">
      <g transform="translate(7 -88.135)">
        <use fill="url(#c)" xlink:href="#d"/>
        <use fill="#000" filter="url(#e)" xlink:href="#d"/>
      </g>
      <g transform="translate(7 -88.135)">
        <use fill="url(#c)" xlink:href="#f"/>
        <use fill="#000" filter="url(#g)" xlink:href="#f"/>
      </g>
      <g transform="translate(7 -88.135)">
        <use fill="url(#c)" xlink:href="#h"/>
        <use fill="#000" filter="url(#i)" xlink:href="#h"/>
      </g>
      <g transform="translate(7 -88.135)">
        <use fill="url(#c)" xlink:href="#j"/>
        <use fill="#000" filter="url(#k)" xlink:href="#j"/>
      </g>
      <g transform="translate(7 -88.135)">
        <use fill="url(#c)" xlink:href="#l"/>
        <use fill="#000" filter="url(#m)" xlink:href="#l"/>
      </g>
      <g transform="translate(7 -88.135)">
        <use fill="url(#c)" xlink:href="#n"/>
        <use fill="#000" filter="url(#o)" xlink:href="#n"/>
      </g>
      <g transform="translate(7 -88.135)">
        <use fill="url(#c)" xlink:href="#p"/>
        <use fill="#000" filter="url(#q)" xlink:href="#p"/>
      </g>
      <g transform="translate(7 -88.135)">
        <use fill="url(#c)" xlink:href="#r"/>
        <use fill="#000" filter="url(#s)" xlink:href="#r"/>
      </g>
      <g transform="translate(7 -88.135)">
        <use fill="url(#c)" xlink:href="#t"/>
        <use fill="#000" filter="url(#u)" xlink:href="#t"/>
      </g>
      <g transform="translate(7 -88.135)">
        <use fill="url(#c)" xlink:href="#v"/>
        <use fill="#000" filter="url(#w)" xlink:href="#v"/>
      </g>
      <g transform="translate(7 -88.135)">
        <use fill="url(#c)" xlink:href="#x"/>
        <use fill="#000" filter="url(#y)" xlink:href="#x"/>
      </g>
      <g transform="translate(7 -88.135)">
        <use fill="url(#c)" xlink:href="#z"/>
        <use fill="#000" filter="url(#A)" xlink:href="#z"/>
      </g>
      <g transform="translate(7 -88.135)">
        <use fill="url(#c)" xlink:href="#B"/>
        <use fill="#000" filter="url(#C)" xlink:href="#B"/>
      </g>
    </g>
  </g>
</svg>
