<?xml version="1.0" encoding="utf-8"?>
<!-- Generator: Adobe Illustrator 22.0.1, SVG Export Plug-In . SVG Version: 6.00 Build 0)  -->
<svg version="1.1" xmlns="http://www.w3.org/2000/svg"  x="0px" y="0px"
     viewBox="0 0 190 42.8" style="enable-background:new 0 0 190 42.8;" xml:space="preserve">
<style type="text/css">
	@import url('https://fonts.googleapis.com/css?family=Open+Sans');

	.st0{fill:#FFFFFF;}
	.st1{font-size:38px;font-family: 'Open Sans', sans-serif;letter-spacing:2px;}
</style>
  <g>
	<g>
		<path class="st0" d="M12.8,25.9l2.3-2.2l0,0l6.8-6.4l3.8-3.6h0l0.6-0.5c0.6-0.6,1-1.4,1.1-2.2c0-0.1,0-0.3,0-0.4l0.1-2.4l0.1-3.9
			c0-1-0.3-2-1-2.7C25.9,0.9,25,0.5,24,0.5l-6.2-0.1h-0.1c-1,0-1.8,0.4-2.6,1L1.7,14.1c-0.7,0.7-1.1,1.6-1.2,2.6c0,1,0.3,2,1,2.7
			l6,6.4c0.7,0.8,1.7,1.2,2.7,1.2C11.2,26.9,12.1,26.6,12.8,25.9z M9.7,18.8c-0.1,0-0.2,0-0.3-0.1l-0.6-0.6c-0.2-0.2-0.1-0.4,0-0.6
			l0.1-0.1c0.1-0.1,0.2-0.4,0-0.5c-0.1-0.2-0.3-0.5-0.4-0.8c-0.2-0.4-0.3-0.8-0.5-1.2c-0.1-0.2,0.1-0.4,0.3-0.5l1.1-0.4
			c0.2-0.1,0.5,0,0.5,0.2c0,0.1,0.1,0.3,0.1,0.4c0,0,0,0,0,0c0.3,0.9,0.7,1.6,1.1,2c0.4,0.4,0.6,0.4,0.8,0.2c0.2-0.2,0-0.7-0.6-2
			c-0.2-0.4-0.3-0.7-0.4-1c-0.3-1,0-1.7,0.6-2.3c0.6-0.6,1.4-0.7,2.2-0.4c0.2,0.1,0.4,0.2,0.6,0.3c0.1,0.1,0.4,0.1,0.5,0l0,0
			c0.1-0.2,0.4-0.1,0.5,0l0.6,0.6c0.2,0.2,0.2,0.4,0,0.6L16,12.5c-0.1,0.1-0.1,0.3,0,0.5c0.2,0.3,0.4,0.6,0.5,0.9
			c0.1,0.2,0.2,0.4,0.3,0.6c0.1,0.2,0,0.4-0.2,0.5l-0.9,0.5c-0.2,0.1-0.4,0-0.5-0.2c0-0.1-0.1-0.1-0.1-0.2c-0.4-0.8-0.9-1.5-1.2-1.9
			c-0.3-0.3-0.6-0.3-0.7-0.2c-0.2,0.2-0.1,0.5,0.7,1.9c0.2,0.3,0.3,0.6,0.4,0.9c0.4,1,0.2,1.8-0.5,2.6c-0.7,0.8-1.7,0.9-2.7,0.5
			c-0.2-0.1-0.4-0.2-0.6-0.4c-0.2-0.1-0.4-0.1-0.5,0.1C9.9,18.8,9.8,18.8,9.7,18.8z M18.9,6.9c0.2-0.2,0.5-0.4,0.9-0.4
			c0,0,0.1,0,0.1,0h0c0.1,0,0.1,0,0.2,0c0.3,0,0.6,0.2,0.9,0.4c0.2,0.2,0.3,0.4,0.4,0.7c0,0,0,0,0,0c0,0.1,0,0.2,0,0.3
			c0,0.1,0,0.2,0,0.3c-0.1,0.3-0.2,0.5-0.4,0.7c-0.6,0.6-1.5,0.5-2.1-0.1c-0.3-0.3-0.4-0.7-0.4-1.1C18.5,7.6,18.7,7.2,18.9,6.9z"/>
    <path class="st0" d="M32.9,16.9l-1.8-6c-0.1-0.2-0.2-0.5-0.3-0.7l0,0.5c0,0.3,0,0.5-0.1,0.8c-0.2,1.2-0.6,2.3-1.4,3.3
			c-0.2,0.3-0.5,0.6-0.8,0.9l-0.6,0.5l0,0l-0.6,0.6l-3.2,3.1l0,0l-1.9,1.8l0.2,0.1c0.2,0.1,0.3,0.3,0.2,0.5l0,0.1
			c-0.1,0.2,0,0.4,0.1,0.5c0.4,0.3,0.8,0.7,1.3,1.2c0.2,0.2,0.2,0.4,0,0.6l-0.7,0.8c-0.1,0.1-0.4,0.1-0.6,0
			c-0.7-0.7-1.4-1.3-1.8-1.5c-0.3-0.2-0.6-0.1-0.7,0.1c-0.1,0.3,0.1,0.5,1.2,1.6c1.2,1.1,1.5,2.1,0.9,3.3c-0.5,1.2-1.7,1.6-3.1,1.1
			c-0.2,0-0.4,0-0.5,0.2c-0.1,0.1-0.2,0.2-0.4,0.2c-0.1,0-0.1,0-0.2,0l-0.8-0.4c-0.2-0.1-0.3-0.4-0.2-0.6l0-0.1
			c0.1-0.2,0-0.4-0.1-0.5c-0.4-0.4-0.8-0.8-1.2-1.2l-1.1,1c-0.9,0.9-2,1.5-3.3,1.7c-0.5,0.1-1,0.2-1.6,0.2c-0.4,0-0.8,0-1.2-0.1
			c0,1.3,0.7,2.5,1.9,3.1l7.7,4.2c0.6,0.3,1.2,0.4,1.8,0.4c0.4,0,0.7,0,1.1-0.2c1-0.3,1.7-0.9,2.2-1.8l8.8-16.3
			C33.1,18.8,33.2,17.8,32.9,16.9z"/>
    <path class="st0" d="M19.4,27.6c0.5,0.3,0.8,0.2,0.9,0c0.1-0.3-0.2-0.6-1.3-1.7c-0.2-0.2-0.4-0.4-0.6-0.7l-0.8,0.7
			C18.3,26.7,18.9,27.3,19.4,27.6z"/>
	</g>
</g>
  <g id="Ebene_3">
	<text transform="matrix(1 0 0 1 47.5002 32.7579)" class="st0 st1">Shoppy</text>
</g>
</svg>
