<?xml version="1.0" encoding="utf-8"?>
<!-- Generator: Adobe Illustrator 24.1.2, SVG Export Plug-In . SVG Version: 6.00 Build 0)  -->
<svg version="1.1" id="OBJECTS" xmlns="http://www.w3.org/2000/svg" xmlns:xlink="http://www.w3.org/1999/xlink" x="0px" y="0px"
	 viewBox="0 0 118.73 284.24" style="enable-background:new 0 0 118.73 284.24;" xml:space="preserve">
<style type="text/css">
	.st0{fill:#FFFFFC;}
	.st1{fill:#AD26B4;}
	.st2{opacity:0.2;fill:#FFFFFC;}
	.st3{fill:#8A2193;}
	.st4{fill:#2B5B81;}
	.st5{fill:#EDEEEF;}
	.st6{opacity:0.2;}
	.st7{fill:#3291B2;}
	.st8{fill:#3EB0EF;}
	.st9{fill:#1C4564;}
</style>
<polygon class="st0" points="78.693,284.24 40.037,284.24 44.037,149.234 74.693,149.234 "/>
<path class="st1" d="M17.956,119.937c-34.767,44.901-8.342,83.494-8.342,83.494l29.567-19.848
	C39.182,183.583,19.404,165.762,17.956,119.937z"/>
<path class="st2" d="M18.176,124.584c-0.092-1.518-0.169-3.062-0.219-4.647c-34.767,44.901-8.342,83.494-8.342,83.494l2.19-1.47
	C7.293,194.024-7.816,161.884,18.176,124.584z"/>
<path class="st3" d="M19.931,139.949c-10.241,25.11-3.716,46.075,0.843,55.991l18.408-12.357
	C39.182,183.583,25.272,171.034,19.931,139.949z"/>
<path class="st4" d="M42.046,184.381l-2.865,16.822c0,0,9.548,7.404,20.183,7.404s20.183-7.404,20.183-7.404l-2.865-16.822
	c-3.381,0.828-9.539,2.003-17.318,2.003S45.428,185.209,42.046,184.381z"/>
<path class="st1" d="M100.773,119.937c-1.448,45.825-21.225,63.646-21.225,63.646l29.567,19.848
	C109.115,203.431,135.54,164.838,100.773,119.937z"/>
<path class="st2" d="M100.773,119.937c-0.042,1.313-0.102,2.597-0.173,3.865c26.875,38.203,10.541,71.07,6.378,78.196l2.136,1.434
	C109.115,203.431,135.54,164.838,100.773,119.937z"/>
<path class="st3" d="M79.548,183.583l16.164,10.851c4.285-9.291,10.357-28.401,2.555-51.558
	C92.589,171.831,79.548,183.583,79.548,183.583z"/>
<path class="st0" d="M75.803,20.095c0.4,0.559,0.788,1.116,1.176,1.672C76.591,21.211,76.204,20.654,75.803,20.095z"/>
<path class="st0" d="M49.856,11.035c0.356-0.439,0.72-0.881,1.084-1.323C50.577,10.154,50.213,10.596,49.856,11.035z"/>
<path class="st0" d="M52.544,7.787c0.357-0.424,0.715-0.847,1.078-1.273C53.258,6.94,52.9,7.364,52.544,7.787z"/>
<path class="st0" d="M44.058,18.543c0.494-0.674,0.994-1.35,1.506-2.028C45.052,17.194,44.553,17.869,44.058,18.543z"/>
<path class="st0" d="M47.336,14.2c0.333-0.427,0.68-0.859,1.02-1.288C48.015,13.341,47.669,13.773,47.336,14.2z"/>
<path class="st0" d="M41.75,21.767c0.388-0.556,0.776-1.113,1.176-1.672C42.526,20.654,42.139,21.211,41.75,21.767z"/>
<path class="st0" d="M65.108,6.514c0.364,0.426,0.722,0.85,1.078,1.273C65.829,7.364,65.471,6.94,65.108,6.514z"/>
<path class="st0" d="M67.789,9.713c0.364,0.442,0.728,0.883,1.084,1.323C68.517,10.596,68.153,10.154,67.789,9.713z"/>
<path class="st0" d="M70.374,12.912c0.34,0.429,0.687,0.861,1.02,1.288C71.061,13.773,70.714,13.341,70.374,12.912z"/>
<path class="st0" d="M55.485,4.36c0.314-0.359,0.622-0.716,0.94-1.077C56.107,3.644,55.799,4.001,55.485,4.36z"/>
<path class="st0" d="M62.304,3.283c0.319,0.361,0.627,0.718,0.94,1.077C62.931,4.001,62.623,3.644,62.304,3.283z"/>
<path class="st0" d="M88.606,41.726c0.362,0.777,0.718,1.554,1.06,2.333C89.324,43.28,88.968,42.503,88.606,41.726z"/>
<path class="st0" d="M73.165,16.515c0.512,0.678,1.012,1.354,1.506,2.028C74.177,17.869,73.678,17.194,73.165,16.515z"/>
<path class="st0" d="M81.52,28.66c1.46,2.36,2.82,4.709,4.077,7.057C84.339,33.369,82.981,31.02,81.52,28.66z"/>
<path class="st0" d="M31.775,38.326c0.373-0.739,0.752-1.477,1.144-2.215C32.526,36.849,32.148,37.588,31.775,38.326z"/>
<path class="st0" d="M79.799,25.947c0.404,0.622,0.806,1.243,1.196,1.863C80.605,27.19,80.203,26.569,79.799,25.947z"/>
<path class="st0" d="M85.811,36.111c0.392,0.738,0.771,1.477,1.144,2.215C86.582,37.588,86.204,36.849,85.811,36.111z"/>
<path class="st0" d="M29.064,44.059c0.342-0.779,0.698-1.556,1.06-2.333C29.762,42.503,29.406,43.28,29.064,44.059z"/>
<path class="st0" d="M30.385,41.165c0.347-0.735,0.703-1.469,1.068-2.202C31.088,39.697,30.732,40.431,30.385,41.165z"/>
<path class="st0" d="M87.276,38.964c0.365,0.733,0.721,1.467,1.068,2.202C87.998,40.431,87.641,39.697,87.276,38.964z"/>
<path class="st0" d="M39.675,24.812c0.388-0.585,0.782-1.171,1.184-1.759C40.457,23.64,40.064,24.227,39.675,24.812z"/>
<path class="st0" d="M37.735,27.81c0.39-0.62,0.792-1.241,1.196-1.863C38.526,26.569,38.125,27.19,37.735,27.81z"/>
<path class="st0" d="M77.871,23.053c0.401,0.587,0.796,1.174,1.184,1.759C78.666,24.227,78.272,23.64,77.871,23.053z"/>
<path class="st0" d="M33.131,35.718c1.258-2.348,2.618-4.697,4.078-7.058C35.748,31.02,34.39,33.37,33.131,35.718z"/>
<path class="st0" d="M100.773,119.937c0.055-1.74,0.092-3.508,0.092-5.33c0-29.013-2.277-50.223-11.198-70.545
	c-8.872,3.36-19.23,5.295-30.302,5.295s-21.43-1.935-30.302-5.295c-8.921,20.322-11.198,41.532-11.198,70.545
	c0,1.822,0.037,3.59,0.092,5.33c1.448,45.825,21.225,63.646,21.225,63.646s1.03,0.349,2.865,0.798
	c3.382,0.828,9.539,2.003,17.319,2.003s13.937-1.175,17.318-2.003c1.834-0.449,2.865-0.798,2.865-0.798
	S99.325,165.762,100.773,119.937z M59.365,114.607c-14.498,0-26.25-11.753-26.25-26.25c0-14.498,11.752-26.25,26.25-26.25
	s26.25,11.752,26.25,26.25C85.615,102.854,73.862,114.607,59.365,114.607z"/>
<path class="st5" d="M59.365,64.665c-14.498,0-26.25,11.752-26.25,26.25c0,14.497,11.752,26.25,26.25,26.25
	s26.25-11.753,26.25-26.25C85.615,76.418,73.862,64.665,59.365,64.665z M59.365,108.948c-9.959,0-18.033-8.074-18.033-18.033
	c0-9.959,8.074-18.033,18.033-18.033s18.033,8.074,18.033,18.033C77.397,100.874,69.324,108.948,59.365,108.948z"/>
<path class="st1" d="M59.365,62.107c-14.498,0-26.25,11.752-26.25,26.25c0,14.497,11.752,26.25,26.25,26.25
	s26.25-11.753,26.25-26.25C85.615,73.859,73.862,62.107,59.365,62.107z M59.365,106.389c-9.959,0-18.033-8.074-18.033-18.033
	c0-9.959,8.074-18.033,18.033-18.033s18.033,8.074,18.033,18.033C77.397,98.316,69.324,106.389,59.365,106.389z"/>
<g class="st6">
	<path class="st0" d="M59.365,64.123c14.159,0,25.694,11.212,26.225,25.242c0.013-0.335,0.025-0.67,0.025-1.008
		c0-14.498-11.752-26.25-26.25-26.25s-26.25,11.752-26.25,26.25c0,0.338,0.013,0.673,0.026,1.008
		C33.671,75.335,45.205,64.123,59.365,64.123z"/>
	<path class="st0" d="M59.365,108.406c9.959,0,18.033-8.074,18.033-18.033c0-0.34-0.032-0.673-0.051-1.008
		c-0.526,9.487-8.363,17.024-17.982,17.024s-17.456-7.537-17.982-17.024c-0.018,0.336-0.051,0.668-0.051,1.008
		C41.332,100.332,49.406,108.406,59.365,108.406z"/>
</g>
<path class="st3" d="M59.365,68.135c-11.168,0-20.221,9.053-20.221,20.221c0,11.168,9.053,20.221,20.221,20.221
	s20.221-9.053,20.221-20.221C79.586,77.189,70.533,68.135,59.365,68.135z M59.365,102.248c-7.672,0-13.891-6.219-13.891-13.891
	s6.219-13.891,13.891-13.891s13.891,6.219,13.891,13.891S67.037,102.248,59.365,102.248z"/>
<path class="st1" d="M89.667,44.061L89.667,44.061c0-0.001-0.001-0.001-0.001-0.001c-0.342-0.78-0.698-1.557-1.06-2.334
	c-0.087-0.187-0.173-0.374-0.261-0.561c-0.347-0.735-0.703-1.469-1.068-2.202c-0.106-0.212-0.214-0.425-0.321-0.637
	c-0.373-0.739-0.752-1.477-1.144-2.215c-0.07-0.131-0.143-0.263-0.214-0.394c-1.258-2.347-2.617-4.697-4.077-7.057
	c-0.175-0.283-0.347-0.566-0.525-0.85c-0.39-0.62-0.792-1.241-1.196-1.863c-0.246-0.378-0.493-0.756-0.744-1.135
	c-0.388-0.585-0.782-1.171-1.184-1.759c-0.292-0.428-0.592-0.857-0.891-1.286c-0.388-0.556-0.776-1.113-1.176-1.672
	c-0.369-0.515-0.753-1.034-1.132-1.552c-0.494-0.674-0.994-1.35-1.506-2.028c-0.581-0.769-1.167-1.54-1.771-2.315
	c-0.333-0.427-0.68-0.859-1.02-1.288c-0.494-0.624-0.991-1.248-1.501-1.877c-0.356-0.439-0.72-0.881-1.084-1.323
	c-0.526-0.639-1.061-1.281-1.604-1.925c-0.357-0.424-0.715-0.847-1.078-1.273c-0.61-0.714-1.233-1.433-1.863-2.154
	c-0.314-0.359-0.622-0.716-0.94-1.077C61.346,2.197,60.37,1.104,59.365,0c-1.005,1.104-1.981,2.197-2.939,3.283
	c-0.319,0.361-0.627,0.718-0.94,1.077c-0.63,0.721-1.253,1.44-1.863,2.154c-0.364,0.426-0.722,0.85-1.078,1.273
	c-0.543,0.644-1.077,1.286-1.604,1.925c-0.364,0.442-0.728,0.883-1.084,1.323c-0.51,0.628-1.006,1.253-1.501,1.877
	c-0.34,0.429-0.687,0.861-1.02,1.288c-0.604,0.776-1.19,1.546-1.771,2.315c-0.512,0.678-1.012,1.354-1.506,2.028
	c-0.38,0.518-0.763,1.036-1.132,1.552c-0.4,0.559-0.788,1.116-1.176,1.672c-0.299,0.429-0.599,0.858-0.891,1.286
	c-0.401,0.587-0.796,1.174-1.184,1.759c-0.251,0.379-0.498,0.757-0.744,1.135c-0.404,0.622-0.806,1.243-1.196,1.863
	c-0.178,0.284-0.35,0.567-0.525,0.85c-1.46,2.36-2.82,4.71-4.078,7.058c-0.07,0.131-0.144,0.262-0.213,0.393
	c-0.392,0.738-0.771,1.477-1.144,2.215c-0.107,0.212-0.215,0.425-0.321,0.637c-0.365,0.733-0.721,1.467-1.068,2.202
	c-0.088,0.187-0.174,0.374-0.261,0.561c-0.362,0.777-0.718,1.554-1.06,2.333c0,0-0.001,0.001-0.001,0.002l0,0
	c8.872,3.36,19.23,5.295,30.302,5.295S80.795,47.421,89.667,44.061z"/>
<circle class="st7" cx="59.365" cy="88.357" r="18.033"/>
<circle class="st8" cx="59.365" cy="88.357" r="15.408"/>
<path class="st2" d="M63.517,83.444c0.669,0.949,1.253,2.074,2.323,2.524c1.493,0.629,3.305-0.502,3.813-2.04
	c0.508-1.538-0.022-3.254-0.924-4.6c-2.058-3.07-6.135-4.627-9.715-3.71c-1.079,0.276-2.281,1.024-2.208,2.136
	c0.076,1.154,1.406,1.702,2.461,2.179C60.961,80.698,62.445,81.924,63.517,83.444z"/>
<path class="st2" d="M72.49,89.519c0.565-0.906,0.627-2.081-0.34-2.977c-2.245-2.08-5.615,1.852-3.446,3.79
	C70.006,91.495,71.718,90.758,72.49,89.519z"/>
<path class="st5" d="M85.808,160.264c-6.247,2.128-13.067,1.407-19.604,0.498c-8.065-1.121-16.347-2.586-23.204-6.979
	c-6.192-3.967-10.763-10.065-14.172-16.582c-7.783-14.879-9.879-31.669-10.085-48.644c-0.631,8.02-0.879,16.617-0.879,26.049
	c0,1.822,0.037,3.59,0.092,5.33c1.448,45.825,21.225,63.646,21.225,63.646s1.03,0.349,2.865,0.798
	c3.382,0.828,9.539,2.003,17.319,2.003s13.937-1.175,17.318-2.003c1.834-0.449,2.865-0.798,2.865-0.798s9.384-8.46,15.697-28.701
	C92.34,157.104,89.255,159.09,85.808,160.264z"/>
<path class="st3" d="M89.667,44.061c0-0.001-0.001-0.001-0.001-0.001c-0.168-0.383-0.347-0.764-0.52-1.145
	c-6.397,1.618-13.569,1.17-20.274,0.586c-4.109-0.358-8.279-0.729-12.133-2.198c-3.854-1.468-7.419-4.203-8.932-8.04
	c-1.39-3.527-0.906-7.479-0.399-11.236c0.472-3.506,1.034-7.168,2.104-10.561c-0.388,0.483-0.775,0.965-1.156,1.445
	c-0.34,0.429-0.687,0.861-1.02,1.288c-0.604,0.776-1.19,1.546-1.771,2.315c-0.512,0.678-1.012,1.354-1.506,2.028
	c-0.38,0.518-0.763,1.036-1.132,1.552c-0.4,0.559-0.788,1.116-1.176,1.672c-0.299,0.429-0.599,0.858-0.891,1.286
	c-0.401,0.587-0.796,1.174-1.184,1.759c-0.251,0.379-0.498,0.757-0.744,1.135c-0.404,0.622-0.806,1.243-1.196,1.863
	c-0.178,0.284-0.35,0.567-0.525,0.85c-1.46,2.36-2.82,4.71-4.078,7.058c-0.07,0.131-0.144,0.262-0.213,0.393
	c-0.392,0.738-0.771,1.477-1.144,2.215c-0.107,0.212-0.215,0.425-0.321,0.637c-0.365,0.733-0.721,1.467-1.068,2.202
	c-0.088,0.187-0.174,0.374-0.261,0.561c-0.362,0.777-0.718,1.554-1.06,2.333c0,0-0.001,0.001-0.001,0.002
	c8.872,3.36,19.23,5.295,30.302,5.295S80.795,47.421,89.667,44.061z"/>
<path class="st2" d="M83.225,31.508c-0.556-0.948-1.116-1.897-1.705-2.848c-0.175-0.283-0.347-0.566-0.525-0.85
	c-0.39-0.62-0.792-1.241-1.196-1.863c-0.246-0.378-0.493-0.756-0.744-1.135c-0.388-0.585-0.782-1.171-1.184-1.759
	c-0.292-0.428-0.592-0.857-0.891-1.286c-0.388-0.556-0.776-1.113-1.176-1.672c-0.369-0.515-0.753-1.034-1.132-1.552
	c-0.494-0.674-0.994-1.35-1.506-2.028c-0.581-0.769-1.167-1.54-1.771-2.315c-0.333-0.427-0.68-0.859-1.02-1.288
	c-0.494-0.624-0.991-1.248-1.501-1.877c-0.356-0.439-0.72-0.881-1.084-1.323c-0.526-0.639-1.061-1.281-1.604-1.925
	c-0.357-0.424-0.715-0.847-1.078-1.273c-0.61-0.714-1.233-1.433-1.863-2.154c-0.314-0.359-0.622-0.716-0.94-1.077
	C61.346,2.197,60.37,1.104,59.365,0c-0.565,0.621-1.104,1.231-1.652,1.845C66.217,11.733,74.721,21.621,83.225,31.508z"/>
<path class="st9" d="M76.778,184.935l-0.094-0.554c-3.381,0.828-9.539,2.003-17.318,2.003s-13.937-1.175-17.319-2.003l-1.451,8.518
	c0.063,0.01,0.128,0.021,0.191,0.031c6.763,1.003,13.712,1.337,20.402-0.072C66.967,191.641,72.558,189.024,76.778,184.935z"/>
</svg>
